<svg width="26" height="29" viewBox="0 0 26 29" fill="none" xmlns="http://www.w3.org/2000/svg">
<path d="M5.11429 11.5859C5.11429 7.23075 8.64484 3.7002 13 3.7002V3.7002V3.7002C17.3552 3.7002 20.8857 7.23075 20.8857 11.5859V14.6716L24.8238 19.9224C24.9175 20.0474 24.8811 20.2262 24.7459 20.3044V20.3044C17.4796 24.5085 8.52045 24.5085 1.25415 20.3044V20.3044C1.11895 20.2262 1.08245 20.0474 1.17617 19.9224L5.11429 14.6716V11.5859Z" stroke="white" stroke-width="1.5" stroke-linejoin="round"/>
<path d="M17.4571 23.1567V23.8425C17.4571 26.1147 15.6151 27.9567 13.3428 27.9567C11.0705 27.9567 9.22852 26.1147 9.22852 23.8425V23.1567" stroke="white" stroke-width="1.5"/>
<path d="M14.8855 3.7002V2.54305C14.8855 1.69096 14.1948 1.0002 13.3427 1.0002C12.4906 1.0002 11.7998 1.69096 11.7998 2.54305V3.7002" stroke="white" stroke-width="1.5"/>
</svg>
