<svg width="310" height="184" viewBox="0 0 310 184" fill="none" xmlns="http://www.w3.org/2000/svg">
<path d="M138 30.5C130.4 16.5 111.833 4.33333 103.5 0C29.1 56.8 3.5 83.6667 0 90C10.8 110.8 73.5 161.333 103.5 184C114.3 182 131 164.5 138 156C98.8 120.8 74 97.3333 66.5 90L138 30.5Z" fill="white" fill-opacity="0.1"/>
<path d="M172 30.5C179.6 16.5 198.167 4.33333 206.5 0C280.9 56.8 306.5 83.6667 310 90C299.2 110.8 236.5 161.333 206.5 184C195.7 182 179 164.5 172 156C211.2 120.8 236 97.3333 243.5 90L172 30.5Z" fill="white" fill-opacity="0.1"/>
</svg>
